<?xml version="1.0" standalone="no"?>
<!DOCTYPE svg PUBLIC "-//W3C//DTD SVG 20010904//EN"
 "http://www.w3.org/TR/2001/REC-SVG-20010904/DTD/svg10.dtd">
<svg version="1.0" xmlns="http://www.w3.org/2000/svg"
 width="700.000000pt" height="700.000000pt" viewBox="0 0 700.000000 700.000000"
 preserveAspectRatio="xMidYMid meet">
<metadata>
Created by potrace 1.14, written by Peter Selinger 2001-2017
</metadata>
<g transform="translate(0.000000,700.000000) scale(0.100000,-0.100000)"
fill="#000000" stroke="none">
<path d="M2290 6313 c-104 -45 -360 -177 -395 -205 -5 -4 -55 -38 -110 -74
-253 -169 -516 -415 -690 -644 -27 -36 -52 -67 -55 -70 -3 -3 -28 -39 -55 -80
-28 -41 -53 -76 -57 -78 -5 -2 -8 -7 -8 -11 0 -5 -25 -49 -55 -99 -64 -106
-169 -322 -214 -440 -66 -173 -132 -404 -157 -552 -2 -14 -6 -34 -9 -46 -2
-11 -7 -45 -10 -75 -4 -30 -8 -59 -10 -66 -18 -55 -25 -474 -12 -631 31 -358
129 -721 287 -1057 50 -106 162 -305 200 -355 15 -19 29 -42 33 -50 4 -12 101
-145 134 -185 5 -5 28 -35 53 -65 48 -58 269 -283 335 -340 323 -282 728 -503
1150 -628 386 -115 828 -152 1215 -102 41 6 91 12 110 14 19 3 71 12 115 21
44 9 91 18 105 21 92 18 353 99 445 138 535 228 924 518 1266 946 69 86 219
301 219 314 0 3 13 24 29 48 35 53 181 351 181 370 0 7 7 24 16 36 8 12 14 22
12 22 -2 0 -51 -16 -109 -35 -163 -56 -404 -116 -519 -131 -74 -9 -128 -16
-150 -19 -70 -11 -171 -16 -325 -16 -244 0 -306 5 -610 57 -188 32 -490 133
-700 233 -128 61 -319 168 -371 207 -17 13 -34 24 -37 24 -10 0 -217 159 -292
224 -226 196 -449 457 -590 688 -171 282 -301 580 -365 838 -53 213 -77 358
-96 570 -5 62 -5 374 0 435 7 86 18 191 22 210 2 10 6 35 9 55 22 148 80 376
131 520 19 52 34 96 34 98 0 6 -22 -1 -100 -35z"/>
</g>
</svg>
